<svg width="6" height="12" viewBox="0 0 6 12" fill="none" xmlns="http://www.w3.org/2000/svg">
<path d="M5.52796 1.73923C5.82216 1.44765 5.82427 0.972781 5.53269 0.678584C5.24111 0.384387 4.76624 0.382269 4.47204 0.673852L2.67731 2.45264C2.00134 3.12258 1.44886 3.67013 1.05706 4.158C0.649628 4.66533 0.354695 5.18027 0.275909 5.79838C0.241364 6.06941 0.241364 6.34368 0.275909 6.61471C0.354695 7.23282 0.649628 7.74776 1.05706 8.25508C1.44886 8.74295 2.00133 9.29049 2.6773 9.96043L4.47204 11.7392C4.76624 12.0308 5.24111 12.0287 5.53269 11.7345C5.82427 11.4403 5.82216 10.9654 5.52796 10.6739L3.76499 8.92654C3.0495 8.21741 2.55869 7.72937 2.22659 7.31584C1.904 6.91414 1.79332 6.65613 1.76387 6.42505C1.74538 6.27995 1.74538 6.13314 1.76387 5.98804C1.79332 5.75696 1.904 5.49894 2.22659 5.09725C2.55869 4.68372 3.0495 4.19568 3.76499 3.48654L5.52796 1.73923Z" fill="#090909"/>
</svg>
