<svg width="24" height="24" viewBox="0 0 24 24" fill="none" xmlns="http://www.w3.org/2000/svg">
<path fill-rule="evenodd" clip-rule="evenodd" d="M11.25 11.4628V21.9237C10.9517 21.8645 10.6574 21.7719 10.375 21.6415L5.375 19.3319C3.93088 18.6647 3.00013 17.1765 3 15.5341V8.46569C3.00003 8.10201 3.04801 7.74648 3.13477 7.40515L11.25 11.4628ZM20.8643 7.40515C20.9511 7.74655 21 8.10193 21 8.46569V15.5341C20.9999 17.1765 20.0691 18.6647 18.625 19.3319L13.625 21.6415C13.3426 21.7719 13.0483 21.8645 12.75 21.9237V11.4628L20.8643 7.40515ZM10.375 2.35827C11.4093 1.88058 12.5907 1.88058 13.625 2.35827L18.625 4.66784C19.2865 4.97349 19.8382 5.45281 20.2441 6.03893L12 10.161L3.75488 6.03893C4.16086 5.45261 4.71331 4.97357 5.375 4.66784L10.375 2.35827Z" fill="white"/>
</svg>
