<svg width="24" height="24" viewBox="0 0 24 24" fill="none" xmlns="http://www.w3.org/2000/svg">
<path fill-rule="evenodd" clip-rule="evenodd" d="M9.46973 2.90934C10.9422 1.69689 13.0578 1.69688 14.5303 2.90934L19.5303 7.02653C20.4605 7.79251 21 8.9396 21 10.1506V17.967C21 20.1944 19.2091 22.0002 17 22.0002H7C4.79086 22.0002 3 20.1944 3 17.967V10.1506C3 8.9396 3.53951 7.79251 4.46973 7.02653L9.46973 2.90934ZM16.6885 15.7033C16.5245 15.3229 16.0835 15.1477 15.7031 15.3117C14.2139 15.9539 13.1137 16.2475 12.0381 16.2502C10.9619 16.2528 9.83524 15.964 8.29297 15.3097C7.91166 15.148 7.47135 15.3259 7.30957 15.7072C7.1478 16.0885 7.32571 16.5288 7.70703 16.6906C9.3359 17.3816 10.6772 17.7535 12.042 17.7502C13.4076 17.7468 14.7224 17.3676 16.2969 16.6886C16.6772 16.5246 16.8524 16.0836 16.6885 15.7033Z" fill="white"/>
</svg>
